<?xml version="1.0" encoding="utf-8"?>
<svg version="1.1" id="Layer_1" x="0px" y="0px" viewBox="0 0 636.1 140.4" style="enable-background:new 0 0 636.1 140.4;" xmlns="http://www.w3.org/2000/svg">
  <style type="text/css">
	.st0{fill:url(#SVGID_1_);}
	.st1{fill:url(#SVGID_2_);}
	.st2{fill:url(#SVGID_3_);}
	.st3{fill:url(#SVGID_4_);}
	.st4{fill:url(#SVGID_5_);}
	.st5{fill:url(#SVGID_6_);}
	.st6{fill:url(#SVGID_7_);}
	.st7{fill:url(#SVGID_8_);}
	.st8{fill:url(#SVGID_9_);}
</style>
  <g transform="matrix(1, 0, 0, 1, 134.349075, 13.552758)">
    <g>
      <linearGradient id="SVGID_7_" gradientUnits="userSpaceOnUse" x1="-14.647" y1="33.7483" x2="656.5567" y2="33.7483">
        <stop offset="0.0015" style="stop-color:#DA8CFF"/>
        <stop offset="1" style="stop-color:#9A55FF"/>
      </linearGradient>
      <path class="st6" d="M100.2,30L53.1,6.5c-1.2-0.6-2.5-0.6-3.7,0L2.3,30C0.9,30.7,0,32.2,0,33.7c0,1.6,0.9,3,2.3,3.7L49.4,61 c0.6,0.3,1.2,0.4,1.9,0.4c0.6,0,1.3-0.1,1.9-0.4l47.1-23.5c1.4-0.7,2.3-2.1,2.3-3.7C102.5,32.2,101.6,30.7,100.2,30z M51.2,52.7 L13.4,33.7l37.8-18.9l37.8,18.9L51.2,52.7z" style="stroke-width: 19px;"/>
    </g>
  </g>
  <g transform="matrix(1, 0, 0, 1, 134.349075, 13.552758)">
    <g>
      <linearGradient id="SVGID_8_" gradientUnits="userSpaceOnUse" x1="-14.647" y1="92.6076" x2="656.5567" y2="92.6076">
        <stop offset="0.0015" style="stop-color:#DA8CFF"/>
        <stop offset="1" style="stop-color:#9A55FF"/>
      </linearGradient>
      <path class="st7" d="M102,79c-1-2-3.5-2.9-5.6-1.9L51.2,99.8L6,77.1c-2-1-4.5-0.2-5.6,1.9c-1,2-0.2,4.5,1.9,5.6l47.1,23.5 c0.6,0.3,1.2,0.4,1.9,0.4c0.6,0,1.3-0.1,1.9-0.4l47.1-23.5C102.2,83.5,103,81,102,79z" style="stroke-width: 19px;"/>
    </g>
  </g>
  <g transform="matrix(1, 0, 0, 1, 134.349075, 13.552758)">
    <g>
      <linearGradient id="SVGID_9_" gradientUnits="userSpaceOnUse" x1="-14.647" y1="69.0637" x2="656.5567" y2="69.0637">
        <stop offset="0.0015" style="stop-color:#DA8CFF"/>
        <stop offset="1" style="stop-color:#9A55FF"/>
      </linearGradient>
      <path class="st8" d="M102,55.4c-1-2-3.5-2.9-5.6-1.9L51.2,76.2L6,53.6c-2-1-4.5-0.2-5.6,1.9c-1,2-0.2,4.5,1.9,5.6l47.1,23.5 c0.6,0.3,1.2,0.4,1.9,0.4c0.6,0,1.3-0.1,1.9-0.4L100.2,61C102.2,60,103,57.5,102,55.4z" style="stroke-width: 19px;"/>
    </g>
  </g>
  <text style="fill: rgba(176, 70, 197, 0.73); font-family: Arial, sans-serif; font-size: 113px; font-weight: 700; paint-order: fill; stroke-width: 0px; white-space: pre;" x="290.325" y="111.02">1877</text>
</svg>